<?xml version="1.0" encoding="UTF-8"?>
<svg id="Layer_1" data-name="Layer 1" xmlns="http://www.w3.org/2000/svg" xmlns:xlink="http://www.w3.org/1999/xlink" viewBox="0 0 893.42 350">
  <defs>
    <style>
      .cls-1 {
        fill: none;
      }

      .cls-2 {
        fill: #e88c34;
      }

      .cls-3 {
        fill: #db4239;
      }

      .cls-4 {
        fill: #9f59cc;
      }

      .cls-5 {
        fill: #fcfbfb;
      }

      .cls-6 {
        fill: #3b87c2;
      }

      .cls-7 {
        fill: #fefefe;
      }

      .cls-8 {
        fill: #7b4fac;
      }

      .cls-9 {
        fill: #edcf3e;
      }

      .cls-10 {
        clip-path: url(#clippath);
      }

      .cls-11 {
        fill: #63b568;
      }
    </style>
    <clipPath id="clippath">
      <rect class="cls-1" width="893.42" height="350"/>
    </clipPath>
  </defs>
  <g class="cls-10">
    <g>
      <path class="cls-7" d="M1127.47-208.34v768H-248.53V-208.34h1376ZM125.48,275.65c99.34,18.35,184.59-77.36,144.18-173.68C217.43-22.49,23.1,7.67,15.43,149.12c-1.95,35.92-2.13,85.25,0,121.08,1.22,20.53,8.59,38.41,26.74,49.26,36.31,21.7,81-2.15,83.31-43.81ZM440.21,96.89c-6.21,1.15-11.41,6.83-11.73,13.26,3.05,40.95-4.05,87.81-.05,128.06,2.01,20.25,29.75,19.17,31.97,2.86-2.51-41.65,3.65-87.83.12-128.95-1.03-11.96-8.3-17.46-20.3-15.23ZM639.47,168.66c14.2.55,30.06,2.22,26.93-17.44-1.05-6.61-3.68-5.72-8.17-7.63-.71-.3-.73-1.73-1.47-1.9-2.77-.63-16.69.58-17.3-.03.37-13.67,2.66-33.01-16.5-32.79-19.69.23-16.18,19.19-16.95,32.85-.96,1.45-10.2-1.26-14.06,6.93-5.45,11.56,3.45,20.11,14.57,21.62,2.2,19.61-5.94,58.93,7.5,74.33,9.4,10.77,29.68,11.76,42.46,7.57,15.6-5.11,13.31-25.91-.81-27.31-7.46-.74-13.09,3.46-16.21-7.21v-49ZM719.47,168.65c7.43.64,13.95,2.04,21.07-1.43,7.94-3.87,9.21-14.53,3.96-21.09-6.52-8.14-24.6-2.75-25.55-4.42-2.19-10.02,4.74-28.24-9.4-31.62-22.82-5.46-24.22,14.62-23.06,31.57-21.26-1.87-20.79,29.51,0,26.99,2.43,36.94-13.73,91.55,43.39,84.9,9.17-1.07,18.28-5.66,17.54-16.25-1.52-21.86-26.03-1.42-27.97-22.11-1.38-14.74,1.11-31.57.04-46.54ZM373.49,155.65c-14.05-23.16-49.85-19.21-67.01-1.49-37.31,38.53-5.37,118.24,50.29,98.29,7.9-2.83,11.42-8.19,17.7-12.79,2.19,18.96,30.2,19.23,32.05-1.46,2.46-27.49-1.36-59.55-.72-87.36-3.48-13.37-25.77-13.23-30.55-.92-.77,1.99-.09,5.27-1.75,5.73ZM509.47,208.66h65.5c4.83,0,10.69-5.61,11.41-10.59,4.31-30.07-21.13-57.13-50.36-58.46-80.16-3.63-80.22,123.9,6.93,116.03,11.21-1.01,37-9.38,36.56-23.45-.19-5.99-6.61-12.27-12.58-12.58-9.55-.5-21.38,13.08-32.9,10.98-1.21-.22-12.73-3.82-13.31-4.27-5.08-3.94-10.9-10.92-11.25-17.68ZM785.47,208.66h64.5c3.09,0,6.13-3.57,8.52-3.56,3.56-4.6,5.39-12.04,3.97-17.77-.19-.78-1.96-.62-2.04-1.3-.24-2.2,1.27-3.97.14-7.92-17.26-60.2-106.27-46.21-108.13,17.01-1.53,51.8,58.72,78.59,95.04,49.84,7.77-6.15,11.7-15.09,2.49-22.29-10.88-8.52-18.45,2.98-28.26,5.73-14.56,4.09-34.83-3.18-36.24-19.74Z"/>
      <g>
        <g>
          <path class="cls-8" d="M125.48,275.65c-2.31,41.66-47,65.51-83.31,43.81-18.15-10.85-25.52-28.73-26.74-49.26-2.13-35.84-1.95-85.16,0-121.08C23.1,7.67,217.43-22.49,269.65,101.98c40.41,96.31-44.84,192.02-144.18,173.68ZM112.48,257.66c82.87,29.08,171.26-43.6,150.7-131.21C233.27-.95,36.74,11.53,29.43,150.12c-2.25,42.74.61,88.84,1.49,131.6,7.49,30.19,42.04,42.73,66.57,22.46,14.21-11.74,14.92-29.26,14.99-46.51Z"/>
          <path class="cls-5" d="M112.48,257.66c-.08,17.25-.79,34.76-14.99,46.51-24.53,20.28-59.08,7.73-66.57-22.46-.87-42.76-3.74-88.86-1.49-131.6C36.74,11.53,233.27-.95,263.18,126.45c20.57,87.61-67.82,160.29-150.7,131.21ZM195.11,74.06c-13.27-9.77-48.37-15.57-63.82-10.07-3.86,1.37-5.39,3.11-2.8,7.16,7.56,4.25,14.93,8.78,21.71,14.21,10.71,8.57,16.88,21.06,25.17,31.12,3.72,5.23,6.96,16.72,10.64,21.14,1.64,1.97,5.05,3.09,7.27,1.81,1.89-1.09,7.15-18.5,7.76-21.73,2.06-10.91,3.88-36.44-5.92-43.65ZM161.33,112.51c4.23-6.66-15.1-22.64-19.94-26.27-6.89-5.16-22.77-14.95-31.28-14.53-13.11.66-32.52,21.03-39.44,31.63-4.57,7.01-9.9,16.1-9.23,24.65,1.16,4.65,16.38-4.73,19.07-5.8,22.12-8.77,39.53-11.63,63.51-10.57,3.21.14,15.82,3.24,17.31.9ZM236.13,161.31c12.83-13.82-1.24-47.65-10.82-60.99-2.13-2.96-13.96-18.31-15.81-8.14-.05,21.76-5.13,42.3-15.83,61.17-2.65,4.68-16.75,22.83-16,26.54.11.54,2.01,3.76,2.39,3.79,1.27-.35,2.56-1,3.91-1.03,12.35-.21,26.3-5.88,37.25-11.97,4.06-2.25,11.95-6.19,14.91-9.38ZM90.47,195.66c1.32-17.78,9.17-37.15,18.19-52.31,7-11.75,25.48-28.33-2.23-23.23-14.56,2.68-48.9,14.87-50.99,32.01-1.51,12.34.11,30.43.02,43.52,0,1.33,0,2.67,0,4-.14,27.32-.29,54.71.47,82.03,5.56,16.63,29.09,15.98,33.53-1.03,1.66-1.04,1-3.79,1.02-5.49.32-25.65-1.88-54.39-.02-79.51ZM172.22,237.41c.79-.68,1.39-3.17,1.27-4.23-.36-3.26-19.37-15.05-23.49-18.56-10.18-8.67-19.24-20.27-26.55-31.45-9.38-14.36-15.27-37.39-23.69-4.74-4.2,16.29-7.35,39.05,9.02,49.41,17.24,10.91,43.78,14.36,63.44,9.56ZM222.81,204.98c2.9-3.68,5.89-6.49,8.46-11.02,2.31-4.07,11.57-21.15,3.5-23.16-1.66-.26-3.11.47-4.56,1.11-2.29,1-5.45,4.26-7.01,5.03-13.59,6.64-32.12,11.94-47.19,12.77-10.67.59-22.18-1.8-32.09-1.09-1.23.09-5.17.31-5.5,1.71-.28,2.86.1,4.89,1.59,7.29,5.87,9.43,33.99,30.55,45.04,31.95,12.16,1.55,27.77-11.63,35.43-20.4,1.12-1.29,1.35-2.94,2.33-4.18Z"/>
          <g>
            <path class="cls-4" d="M55.47,199.66c2.29.52,1.42-1.84,3.44-2.08,5.48-.65,21.66-.67,27.1.01,1.43.18,2.3,1.96,3.41,2.8l.05,80.27c-4.43,17.01-27.97,17.65-33.53,1.03-.76-27.31-.61-54.71-.47-82.03Z"/>
            <path class="cls-3" d="M55.47,195.66c.08-13.09-1.53-31.19-.02-43.52,2.09-17.14,36.43-29.33,50.99-32.01,27.71-5.1,9.22,11.48,2.23,23.23-9.02,15.15-16.87,34.53-18.19,52.31h-35Z"/>
            <path class="cls-6" d="M222.81,204.98c-.98,1.24-1.2,2.9-2.33,4.18-7.66,8.77-23.27,21.95-35.43,20.4-11.04-1.41-39.17-22.52-45.04-31.95-1.49-2.4-1.87-4.43-1.59-7.29.34-1.4,4.28-1.62,5.5-1.71,9.92-.71,21.43,1.68,32.09,1.09,15.07-.83,33.61-6.13,47.19-12.77,1.56-.76,4.72-4.02,7.01-5.03,1.45-.64,2.9-1.36,4.56-1.11,8.06,2.01-1.2,19.09-3.5,23.16-2.57,4.53-5.56,7.34-8.46,11.02Z"/>
            <path class="cls-11" d="M236.13,161.31c-2.95,3.18-10.85,7.12-14.91,9.38-10.96,6.09-24.9,11.75-37.25,11.97-1.35.02-2.63.68-3.91,1.03-.38-.03-2.28-3.24-2.39-3.79-.75-3.71,13.35-21.86,16-26.54,10.7-18.87,15.78-39.41,15.83-61.17,1.85-10.17,13.68,5.18,15.81,8.14,9.58,13.33,23.66,47.16,10.82,60.99Z"/>
            <path class="cls-2" d="M161.33,112.51c-1.49,2.35-14.1-.75-17.31-.9-23.98-1.05-41.39,1.8-63.51,10.57-2.7,1.07-17.91,10.45-19.07,5.8-.66-8.54,4.66-17.64,9.23-24.65,6.92-10.6,26.33-30.97,39.44-31.63,8.51-.43,24.39,9.37,31.28,14.53,4.85,3.63,24.17,19.6,19.94,26.27Z"/>
            <path class="cls-8" d="M172.22,237.41c-19.66,4.79-46.19,1.35-63.44-9.56-16.37-10.36-13.22-33.11-9.02-49.41,8.42-32.65,14.31-9.62,23.69,4.74,7.31,11.18,16.37,22.78,26.55,31.45,4.12,3.51,23.13,15.29,23.49,18.56.12,1.06-.49,3.54-1.27,4.23Z"/>
            <path class="cls-9" d="M195.11,74.06c9.8,7.22,7.98,32.74,5.92,43.65-.61,3.22-5.86,20.64-7.76,21.73-2.21,1.27-5.63.15-7.27-1.81-3.68-4.42-6.92-15.91-10.64-21.14-8.29-10.07-14.46-22.55-25.17-31.12-6.78-5.43-14.15-9.96-21.71-14.21-2.59-4.05-1.06-5.79,2.8-7.16,15.45-5.5,50.55.3,63.82,10.07Z"/>
            <path class="cls-8" d="M90.47,195.66c-1.87,25.13.33,53.86.02,79.51-.02,1.69.64,4.45-1.02,5.49l-.05-80.27c-1.12-.84-1.98-2.62-3.41-2.8-5.44-.68-21.62-.66-27.1-.01-2.02.24-1.15,2.6-3.44,2.08,0-1.33,0-2.67,0-4h35Z"/>
          </g>
        </g>
        <g>
          <path class="cls-8" d="M373.49,155.65c1.67-.45.98-3.73,1.75-5.73,4.78-12.31,27.07-12.45,30.55.92-.64,27.8,3.19,59.86.72,87.36-1.85,20.69-29.86,20.42-32.05,1.46-6.28,4.6-9.8,9.96-17.7,12.79-55.66,19.95-87.6-59.76-50.29-98.29,17.16-17.72,52.96-21.67,67.01,1.49ZM344.26,167.94c-13.95,1.83-23.64,20.27-21.72,33.15,1.79,12.01,10.57,24.46,23.45,25.54,39.53,3.33,38.06-63.91-1.72-58.7Z"/>
          <path class="cls-8" d="M509.47,208.66c.35,6.76,6.17,13.74,11.25,17.68.58.45,12.1,4.05,13.31,4.27,11.51,2.1,23.35-11.48,32.9-10.98,5.97.31,12.39,6.58,12.58,12.58.44,14.07-25.35,22.44-36.56,23.45-87.16,7.87-87.1-119.66-6.93-116.03,29.23,1.32,54.66,28.39,50.36,58.46-.71,4.98-6.57,10.59-11.41,10.59h-65.5ZM555.47,187.66c-4.08-31.14-42.13-30.01-47,0h47Z"/>
          <path class="cls-8" d="M440.21,96.89c25.61-4.76,20.9,27.87,20.9,43.71v72c0,12.39,4.92,34.19-10.22,39.73-17.94,6.56-23.09-12.25-23.09-25.58v-111.92c0-7.9,3.83-16.36,12.42-17.95Z"/>
          <path class="cls-5" d="M344.26,167.94c39.78-5.22,41.25,62.03,1.72,58.7-12.88-1.09-21.66-13.54-23.45-25.54-1.92-12.88,7.77-31.33,21.72-33.15Z"/>
          <path class="cls-5" d="M555.47,187.66h-47c4.87-30.01,42.92-31.14,47,0Z"/>
          <g>
            <path class="cls-8" d="M785.47,208.66c1.41,16.56,21.68,23.83,36.24,19.74,9.8-2.76,17.38-14.25,28.26-5.73,9.2,7.21,5.27,16.15-2.49,22.29-36.32,28.75-96.57,1.96-95.04-49.84,1.42-48,65.64-76.8,98-36.92,9.19,11.33,18.3,33.67,8.06,46.9-2.38,0-5.43,3.56-8.52,3.56h-64.5ZM831.47,187.66c-3.69-31.54-42.73-30.16-47,0h47Z"/>
            <path class="cls-8" d="M719.47,168.65c1.07,14.97-1.41,31.8-.04,46.54,1.93,20.68,26.45.25,27.97,22.11.74,10.59-8.36,15.18-17.54,16.25-57.12,6.66-40.96-47.96-43.39-84.9-20.79,2.52-21.26-28.86,0-26.99-1.16-16.95.24-37.03,23.06-31.57,14.15,3.38,7.21,21.61,9.4,31.62.96,1.67,19.04-3.72,25.55,4.42,5.25,6.55,3.98,17.21-3.96,21.09-7.12,3.47-13.63,2.07-21.07,1.43Z"/>
            <g>
              <path class="cls-8" d="M639.47,217.66c3.11,10.66,8.74,6.47,16.21,7.21,14.11,1.4,16.4,22.19.81,27.31-12.78,4.19-33.05,3.2-42.46-7.57-13.44-15.4-5.3-54.72-7.5-74.33-11.11-1.51-20.02-10.06-14.57-21.62,3.86-8.19,13.09-5.48,14.06-6.93.76-13.66-2.75-32.62,16.95-32.85,19.16-.22,16.87,19.12,16.5,32.79.01-.47,18.53-.17,20.76,1.33,7.38,4.94,9.36,17.58,2.09,23.05-4.38,3.29-21.29.42-22.84,2.61l-1.03,1.45c1.1,14.19-1.36,30.23-.05,44.17.19,2.01.76,2.32,1.07,3.38Z"/>
              <path class="cls-4" d="M639.47,217.66c-.31-1.06-.88-1.38-1.07-3.38-1.32-13.94,1.15-29.98.05-44.17l1.03-1.45v49Z"/>
            </g>
            <path class="cls-5" d="M831.47,187.66h-47c4.27-30.16,43.31-31.54,47,0Z"/>
          </g>
        </g>
      </g>
    </g>
  </g>
</svg>