<?xml version="1.0" encoding="UTF-8"?>
<svg id="Layer_1" data-name="Layer 1" xmlns="http://www.w3.org/2000/svg" xmlns:xlink="http://www.w3.org/1999/xlink" viewBox="0 0 1335.14 1335.14">
  <defs>
    <style>
      .cls-1 {
        fill: none;
      }

      .cls-2 {
        fill: #fdfdfc;
      }

      .cls-3 {
        fill: #5bbd61;
      }

      .cls-4 {
        fill: #7b4eb3;
      }

      .cls-5 {
        fill: #a259d4;
      }

      .cls-6 {
        fill: #3487cf;
      }

      .cls-7 {
        fill: #f18a2f;
      }

      .cls-8 {
        fill: #e23e36;
      }

      .cls-9 {
        fill: #f1d53b;
      }

      .cls-10 {
        clip-path: url(#clippath);
      }
    </style>
    <clipPath id="clippath">
      <rect class="cls-1" width="1335.14" height="1335.14" transform="translate(1335.14 1335.14) rotate(180)"/>
    </clipPath>
  </defs>
  <g class="cls-10">
    <g>
      <path class="cls-2" d="M1707.78-356.43V1691.57H-340.22V-356.43H1707.78ZM1059.37,174.99C862.9-1.22,564.34-16.91,351.87,141.15c-130.08,96.78-209.92,242.25-216.13,405.87v537.09c12.3,203.27,258.53,295.87,399.03,140.95,34.52-38.06,53.35-88.39,57.01-139.5,71.28,12.65,145.29,12.63,216.19-2.3,278.63-58.7,468.93-327.68,417.49-611.88-20.62-113.93-80.62-219.73-166.1-296.4Z"/>
      <path class="cls-4" d="M1059.37,174.99c85.48,76.67,145.48,182.46,166.1,296.4,51.44,284.19-138.87,553.18-417.49,611.88-70.9,14.94-144.91,14.95-216.19,2.3-3.66,51.11-22.5,101.44-57.01,139.5-140.51,154.92-386.74,62.32-399.04-140.95v-537.09c6.21-163.62,86.05-309.1,216.13-405.87C564.34-16.91,862.9-1.22,1059.37,174.99ZM1064.36,870.15c188.8-224.1,136.6-549.35-109.06-705.6C700.32,2.36,352.2,103.68,231.7,375.78c-24.35,54.97-38.74,115.33-40.96,176.25.75,177.99-1.31,356.12,1.05,534.03,11.49,165.83,231.19,223.5,318.8,78.82,28.7-47.4,25.86-96.67,25.2-150.3,76.28,24.99,157.68,33.13,237.22,19.72,110.68-18.66,219.15-78.44,291.36-164.15Z"/>
      <path class="cls-2" d="M1064.36,870.15c-72.21,85.71-180.68,145.49-291.36,164.15-79.54,13.41-160.93,5.27-237.22-19.72.66,53.64,3.51,102.9-25.2,150.3-87.61,144.69-307.31,87.02-318.8-78.82-2.36-177.91-.3-356.04-1.05-534.03,2.22-60.92,16.61-121.27,40.96-176.25C352.2,103.68,700.32,2.36,955.3,164.55c245.66,156.25,297.86,481.5,109.06,705.6ZM844.95,225.34c-45.89-28.68-131.95-37-185.66-32.76-12.83,1.01-35.86,3.07-47.77,6.23-9.9,2.62-16.62,13.16-12.47,23,2.8,6.64,13.94,10.82,19.61,14.39,18.64,11.71,37.56,22.73,54.76,36.2,58.97,46.18,99.35,99.08,135.53,164.51,12.37,22.37,22.71,46.87,35.29,68.71,2.72,4.72,5.35,9.46,10.66,11.33,1.73.61,11.83,1.89,13.21,1.66.63-.11.68-1.52,1.02-1.65,9.71-3.91,6.96-5.46,10.75-13.59,8.69-18.66,14.3-37.31,20.41-57.78.63-2.12-1.31-2.95,2.55-4.59-2.48-3.92.59-3.05.9-4.14,12.43-42.82,20.09-140.04-5.69-177.02-13.08-18.77-30.16-25.75-50.27-34.79-.95-.43-2.46.53-2.81.31ZM665.36,298.99c-24.7-19.91-51.34-37.88-80.22-51.28-46.79-21.71-71.77-22.43-115.29,6.43-54.62,36.22-103.47,91.29-131.24,150.76-4.92,10.53-15.41,33.06-17.37,43.63-2.3,12.4,2.64,23.64,16.17,24.94,11.58,1.11,28.91-12.81,39.49-18.29,97-50.25,200.39-61.24,308.39-52.6,12.67,1.01,39.9,7.12,50.76,2.75,12.46-5.02,10.22-20.47,4.38-29.88-14.28-22.99-53.41-59.01-75.05-76.45ZM978.18,315.18c-5-5.67-8.5-10.93-16.84-11.66-14.71-1.29-20.61,8.04-21.59,21.51-.42,5.8,1.02,10.86,1.08,15.99.9,74.55-23.59,153.19-58.29,217.78-20.09,37.4-46.62,72.4-69.44,108.51-1.86,2.94-4.19,3.5-4.36,8.78-.46,14.16,11.33,21.87,24.53,21.47,12.68-.39,35.48-5.64,48.53-8.49,59.45-12.97,120.85-39.7,166.51-79.53,32.35-28.22,30.42-54.23,25.36-95.37-9.89-80.42-43.36-139.92-95.49-199ZM298.78,752.57c0,1,0,2,0,3,.33,113.83-.22,227.69-.04,341.54,5.8,64.07,87.95,88.66,127.04,40.46,3.09-.73,5.84-6.02,7-9,.22-.56.72-1.05,1-2,3.91-1.66,3.68-5.91,5-9,.12-.28-.12-.71,0-1,.09-.21.81-.51,1-1,.64-1.68,1.48-3.28,2-5s.63-2.54,1-4c.08-.31-.07-.68,0-1,.43-1.94.72-2.68,1-5,.16-1.31.89-2.72,1-4,.61-7.21-.13-14.8,0-22,0-.33,0-.67,0-1,.06-3.99-.02-8.01,0-12,0-1.67,0-3.33,0-5,0-5.67,0-11.37,0-17,0-.67,0-1.33,0-2,0-2.66,0-5.34,0-8v-11c.7-6.91.05-13.43,0-20-.02-2.33,0-4.67,0-7,0-2,0-4,0-6,0-.67,0-1.33,0-2,0-1.33,0-2.67,0-4,.07-74.32-3.37-153.31,1-227,5.33-89.99,46.1-177.32,95.57-252.93,9.16-14,21.02-27.26,29.26-41.74,6.51-11.45,3.29-26.9-10.76-29.88-14.42-3.05-48.83,5.23-64.27,8.85-52.58,12.32-112.83,36.09-155.27,69.73-22,17.44-39.16,37.37-42.5,66.5-.97,59.77.8,120.04.98,179.48ZM678.2,817.15c-45.96-44.18-82.41-94.65-115.22-149.28-8.92-14.85-18.95-38.11-29.2-50.8-8.54-10.58-23.93-8.94-30.2,2.81-8.64,16.18-17.22,47.36-21.34,65.66-11.56,51.38-23.63,150.91,22.06,188.01,48.12,39.06,141.72,62.33,202.85,61.88,16.95-.12,57.75-2.54,72.87-8.11,7.73-2.85,12.84-11.82,11.51-20.01-1.91-11.78-12.84-14.52-21.09-19.91-30.52-19.93-60.05-40.64-87.17-64.82l-5.08-5.42ZM978.17,815.94c34.19-36.06,59.38-76.81,77.1-123.39,3.43-9,7.71-18.54,6.43-28.4-1.52-11.68-12.37-17.22-23.35-15.52-7.74,1.2-26.22,14.92-34.54,19.46-90.76,49.46-194.35,62.17-296.51,55.47-12.65-.83-39.22-6.41-49.7-2.68-11.78,4.18-15.61,16.24-9.63,27.02,3.36,6.06,16.17,20.91,21.31,26.69,35.82,40.27,93.09,86.26,142.85,107.15,45.34,19.03,64.79,12.35,103.98-13.35,22.71-14.9,43.46-32.8,62.07-52.44Z"/>
      <path class="cls-5" d="M298.78,755.57h144.01s-.98,221.61-.98,221.61l2.97,2.39c0,1.33,0,2.67,0,4l-.99,1.49.99.51c0,2,0,4,0,6-2.09,2.17-.61,6.23-.99,8.99h.98s.01-1.99.01-1.99c.05,6.57.7,13.09,0,20,0,.09-.71-.14-.97,1.48-.38,2.42-.62,7.56.97,9.52,0,2.66,0,5.34,0,8l-.99,1.49.99.51c0,5.63,0,11.33,0,17-1.58.66-1.58,4.34,0,5-.02,3.99.06,8.01,0,12l-.98.5.98.5c-.13,7.2.61,14.79,0,22h-2s1,4,1,4c-.28,2.32-.57,3.06-1,5l-.5-1c-1.04.11-.8,2.06.5,2-.37,1.46-.5,2.35-1,4v-3s-.99,0-.99,0v2.49s.99.51.99.51c-.52,1.72-1.36,3.32-2,5l-1,1c-.12.29.12.72,0,1-2.76-.71-1.93,2.22-3.12,4.37-1.85,3.37-1.19,2.31-1.88,4.63-.28.95-.78,1.44-1,2l-7,9c-39.09,48.19-121.24,23.61-127.04-40.46-.18-113.84.36-227.71.04-341.54ZM444.28,1009.57v1c.65-.33.65-.67,0-1ZM444.28,1014.57v1c.65-.33.65-.67,0-1Z"/>
      <path class="cls-8" d="M298.78,752.57c-.18-59.45-1.96-119.72-.98-179.48,3.35-29.12,20.51-49.06,42.5-66.5,42.44-33.64,102.68-57.41,155.27-69.73,15.44-3.62,49.85-11.9,64.27-8.85,14.05,2.98,17.28,18.43,10.76,29.88-8.24,14.48-20.1,27.75-29.26,41.74-49.47,75.62-90.23,162.95-95.57,252.93h-147Z"/>
      <path class="cls-3" d="M978.18,315.18c52.12,59.08,85.6,118.58,95.49,199,5.06,41.14,6.99,67.15-25.36,95.37-45.66,39.83-107.06,66.56-166.51,79.53-13.05,2.85-35.86,8.1-48.53,8.49-13.2.41-24.99-7.31-24.53-21.47.17-5.28,2.5-5.84,4.36-8.78,22.82-36.11,49.35-71.11,69.44-108.51,34.7-64.59,59.19-143.23,58.29-217.78-.06-5.14-1.5-10.19-1.08-15.99.98-13.47,6.88-22.8,21.59-21.51,8.35.73,11.84,6,16.84,11.66Z"/>
      <path class="cls-7" d="M665.36,298.99c21.63,17.44,60.77,53.46,75.05,76.45,5.85,9.42,8.09,24.86-4.38,29.88-10.86,4.38-38.09-1.73-50.76-2.75-108-8.64-211.38,2.35-308.39,52.6-10.58,5.48-27.91,19.4-39.49,18.29-13.52-1.3-18.47-12.54-16.17-24.94,1.96-10.57,12.46-33.1,17.37-43.63,27.77-59.47,76.62-114.54,131.24-150.76,43.52-28.86,68.5-28.13,115.29-6.43,28.88,13.4,55.52,31.36,80.22,51.28Z"/>
      <path class="cls-6" d="M978.17,815.94c-18.61,19.63-39.36,37.54-62.07,52.44-39.19,25.71-58.64,32.39-103.98,13.35-49.76-20.89-107.03-66.88-142.85-107.15-5.14-5.78-17.95-20.63-21.31-26.69-5.98-10.78-2.15-22.83,9.63-27.02,10.49-3.72,37.06,1.85,49.7,2.68,102.16,6.7,205.75-6.01,296.51-55.47,8.32-4.53,26.8-18.26,34.54-19.46,10.98-1.7,21.84,3.84,23.35,15.52,1.28,9.86-3,19.4-6.43,28.4-17.73,46.58-42.91,87.33-77.1,123.39Z"/>
      <path class="cls-4" d="M678.2,817.15l5.08,5.42c27.13,24.18,56.65,44.89,87.17,64.82,8.25,5.39,19.18,8.13,21.09,19.91,1.33,8.19-3.78,17.17-11.51,20.01-15.12,5.57-55.92,7.98-72.87,8.11-61.13.44-154.73-22.82-202.85-61.88-45.7-37.09-33.62-136.62-22.06-188.01,4.12-18.3,12.7-49.48,21.34-65.66,6.27-11.75,21.66-13.39,30.2-2.81,10.25,12.7,20.27,35.95,29.2,50.8,32.82,54.63,69.27,105.09,115.22,149.28Z"/>
      <path class="cls-9" d="M844.95,225.34c.35.22,1.87-.74,2.81-.31,20.11,9.04,37.19,16.02,50.27,34.79,25.77,36.98,18.12,134.2,5.69,177.02-.32,1.09-3.38.22-.9,4.14-3.86,1.64-1.91,2.47-2.55,4.59-6.11,20.48-11.72,39.12-20.41,57.78-3.79,8.13-1.04,9.68-10.75,13.59-.33.13-.38,1.55-1.02,1.65-1.38.23-11.48-1.05-13.21-1.66-5.3-1.87-7.94-6.61-10.66-11.33-12.58-21.84-22.91-46.34-35.29-68.71-36.18-65.43-76.56-118.33-135.53-164.51-17.2-13.47-36.12-24.48-54.76-36.2-5.67-3.56-16.81-7.74-19.61-14.39-4.15-9.84,2.57-20.38,12.47-23,11.91-3.15,34.95-5.22,47.77-6.23,53.71-4.24,139.77,4.09,185.66,32.76Z"/>
      <path class="cls-4" d="M445.78,752.57c-4.37,73.69-.93,152.68-1,227l-2.97-2.39.98-221.62h-144.01c0-.99,0-1.99,0-2.99h147Z"/>
      <path class="cls-4" d="M438.78,1117.57c-1.32,3.09-1.09,7.34-5,9,.69-2.33.03-1.27,1.88-4.63,1.18-2.15.35-5.08,3.12-4.37Z"/>
      <path class="cls-4" d="M444.78,1029.57c-1.59-1.96-1.35-7.09-.97-9.52.26-1.63.96-1.39.97-1.48v11Z"/>
      <path class="cls-4" d="M444.78,998.57v1.99s-.99,0-.99,0c.38-2.76-1.1-6.82.99-8.99,0,2.33-.02,4.67,0,7Z"/>
      <path class="cls-4" d="M444.78,1096.57c-.11,1.28-.84,2.69-1,4l-1-4h2Z"/>
      <path class="cls-4" d="M444.78,1061.57c-1.58-.66-1.58-4.34,0-5,0,1.67,0,3.33,0,5Z"/>
      <path class="cls-4" d="M432.78,1128.57c-1.16,2.98-3.91,8.27-7,9l7-9Z"/>
      <path class="cls-4" d="M444.78,985.57l-.99-.51.99-1.49c0,.67,0,1.33,0,2Z"/>
      <path class="cls-4" d="M444.78,1039.57l-.99-.51.99-1.49c0,.67,0,1.33,0,2Z"/>
      <path class="cls-4" d="M442.78,1105.57c-.07.32.08.69,0,1-1.3.07-1.54-1.89-.5-2l.5,1Z"/>
      <path class="cls-4" d="M444.78,1074.57l-.98-.5.98-.5c0,.33,0,.67,0,1Z"/>
      <path class="cls-4" d="M438.78,1116.57l1-1c-.19.49-.91.79-1,1Z"/>
      <polygon class="cls-4" points="441.78 1110.57 440.79 1110.06 440.79 1107.57 441.77 1107.57 441.78 1110.57"/>
      <path class="cls-4" d="M444.28,1009.57c.65.33.65.67,0,1v-1Z"/>
      <path class="cls-4" d="M444.28,1014.57c.65.33.65.67,0,1v-1Z"/>
    </g>
  </g>
</svg>